<svg width="195" height="78" viewBox="0 0 195 78" fill="none" xmlns="http://www.w3.org/2000/svg">
<path d="M79.8801 46.9186H73.7856L72.9046 48.8744H70.7153L76.7737 35.7256H76.892L82.9503 48.8744H80.7611L79.8801 46.9186ZM79.0977 45.1698L76.8361 40.137L74.5679 45.1698H79.0977Z" fill="#1D4510"/>
<path d="M95.4153 42.8683C95.4153 46.6946 92.6343 49.114 89.2847 49.114C88.4105 49.1188 87.544 48.9513 86.7345 48.6211C85.9251 48.291 85.1886 47.8047 84.5672 47.1899C83.9457 46.5751 83.4513 45.844 83.1124 45.0382C82.7735 44.2324 82.5966 43.3677 82.5919 42.4935C82.5871 41.6194 82.7546 40.7529 83.0848 39.9434C83.4149 39.134 83.9012 38.3975 84.516 37.776C85.1308 37.1545 85.8619 36.6602 86.6677 36.3213C87.4735 35.9824 88.3382 35.8055 89.2124 35.8008C90.9641 35.8643 92.6323 36.5658 93.9032 37.7731L92.7757 39.4496C91.8269 38.4781 90.5457 37.9015 89.1894 37.8356C87.9721 37.8545 86.8109 38.351 85.9562 39.218C85.1015 40.085 84.6217 41.2531 84.6201 42.4705C84.6201 44.9951 86.6253 47.0726 89.3734 47.0726C91.5857 47.0726 93.2491 45.7216 93.2491 43.7558V43.7164H89.2551V41.8624H95.3496C95.3897 42.1963 95.4117 42.5321 95.4153 42.8683Z" fill="#1D4510"/>
<path d="M104.353 48.8744L100.885 43.891H99.3038V48.8744H97.2822V35.9951H101.283C103.682 35.9951 105.648 37.8425 105.648 40.1337C105.653 40.9239 105.409 41.6955 104.951 42.3396C104.494 42.9838 103.845 43.4678 103.097 43.7234L106.845 48.8744H104.353ZM101.325 42.2112C101.901 42.2193 102.457 42.0015 102.873 41.6045C103.29 41.2074 103.534 40.6629 103.554 40.0877C103.546 39.8039 103.482 39.5245 103.365 39.2657C103.249 39.0068 103.082 38.7736 102.875 38.5796C102.668 38.3855 102.424 38.2344 102.158 38.135C101.892 38.0355 101.609 37.9898 101.325 38.0003H99.294V42.2112H101.325Z" fill="#1D4510"/>
<path d="M108.197 35.9951H110.218V48.8744H108.197V35.9951Z" fill="#1D4510"/>
<path d="M112.079 42.4445C112.094 40.6834 112.799 38.9985 114.042 37.751C115.285 36.5036 116.968 35.7929 118.729 35.7715C120.42 35.8229 122.024 36.5302 123.203 37.7438L122.029 39.3348C121.598 38.8773 121.082 38.5092 120.509 38.2514C119.936 37.9936 119.317 37.8513 118.689 37.8326C117.466 37.8326 116.292 38.3186 115.427 39.1839C114.562 40.0491 114.076 41.2226 114.076 42.4462C114.076 43.6698 114.562 44.8433 115.427 45.7085C116.292 46.5737 117.466 47.0598 118.689 47.0598C119.32 47.0372 119.939 46.8898 120.513 46.6264C121.086 46.3629 121.601 45.9884 122.029 45.5246L123.196 47.1683C122.625 47.7757 121.937 48.2606 121.173 48.5935C120.409 48.9264 119.585 49.1002 118.752 49.1044C116.987 49.0958 115.296 48.3918 114.047 47.1451C112.798 45.8983 112.091 44.2094 112.079 42.4445Z" fill="#1D4510"/>
<path d="M123.64 42.4508C123.634 41.1321 124.021 39.8415 124.75 38.7426C125.479 37.6437 126.518 36.7861 127.735 36.2782C128.952 35.7704 130.292 35.6353 131.586 35.8901C132.88 36.1449 134.069 36.7781 135.003 37.7095C135.937 38.6408 136.573 39.8284 136.831 41.1216C137.089 42.4149 136.957 43.7556 136.452 44.9739C135.947 46.1922 135.092 47.2332 133.995 47.965C132.898 48.6968 131.608 49.0864 130.29 49.0844C128.532 49.0758 126.848 48.3747 125.603 47.133C124.358 45.8913 123.653 44.209 123.64 42.4508ZM134.915 42.4344C134.918 41.5205 134.65 40.6262 134.145 39.8647C133.64 39.1032 132.92 38.5086 132.077 38.1564C131.233 37.8041 130.305 37.7099 129.408 37.8857C128.511 38.0615 127.687 38.4994 127.039 39.144C126.391 39.7886 125.949 40.6109 125.769 41.5068C125.588 42.4028 125.678 43.332 126.026 44.177C126.374 45.022 126.965 45.7448 127.724 46.2538C128.483 46.7628 129.376 47.0352 130.29 47.0365C131.511 47.0331 132.682 46.5478 133.548 45.6862C134.414 44.8245 134.905 43.656 134.915 42.4344Z" fill="#1D4510"/>
<path d="M149.168 35.9654V49.1143H149.082L140.844 40.5116V48.9072H138.823V35.7715H138.928L147.146 44.361V35.9654H149.168Z" fill="#1D4510"/>
<path d="M162.001 35.9654V49.1143H161.903L153.662 40.5116V48.9072H151.64V35.7715H151.745L159.963 44.361V35.9654H162.001Z" fill="#1D4510"/>
<path d="M166.505 37.9839V41.2711H171.38V43.2862H166.505V46.8495H172.156V48.8613H164.483V35.9951H172.156V37.9839H166.505Z" fill="#1D4510"/>
<path d="M173.631 42.4445C173.647 40.6834 174.352 38.9985 175.595 37.751C176.838 36.5036 178.52 35.7929 180.281 35.7715C181.972 35.8229 183.577 36.5302 184.755 37.7438L183.582 39.3348C183.151 38.8773 182.634 38.5092 182.061 38.2514C181.488 37.9936 180.87 37.8513 180.242 37.8326C179.018 37.8326 177.845 38.3186 176.98 39.1839C176.114 40.0491 175.628 41.2226 175.628 42.4462C175.628 43.6698 176.114 44.8433 176.98 45.7085C177.845 46.5737 179.018 47.0598 180.242 47.0598C180.872 47.0372 181.492 46.8898 182.065 46.6264C182.639 46.3629 183.154 45.9884 183.582 45.5246L184.749 47.1683C184.178 47.7757 183.49 48.2606 182.726 48.5935C181.962 48.9264 181.138 49.1002 180.304 49.1044C178.539 49.0958 176.849 48.3918 175.6 47.1451C174.351 45.8983 173.643 44.2094 173.631 42.4445Z" fill="#1D4510"/>
<path d="M194.446 38.0003H190.994V48.8744H188.966V38.0003H185.514V35.9951H194.446V38.0003Z" fill="#1D4510"/>
<path d="M48.6782 70.2934C47.9057 73.8272 44.2601 73.6792 44.2601 73.6792C44.2601 73.6792 42.6395 74.4156 43.1195 75.2604C43.3924 75.7492 43.7395 76.1928 44.1484 76.5753C69.3646 76.6114 69.6572 76.5753 69.6572 76.5753C69.6572 76.5753 71.6098 75.1388 69.6572 73.7022C69.6572 73.7022 63.99 73.7022 60.9362 66.6347C60.8441 66.4244 36.5483 6.2749 36.5483 6.2749C36.5483 6.2749 34.9639 11.4062 27.6729 16.6921L41.4594 49.298C41.4594 49.298 49.4507 66.7597 48.6782 70.2934Z" fill="#9CB217"/>
<path d="M48.8718 43.72C47.764 43.2466 46.5148 42.6483 45.4498 43.6115C43.1093 45.7219 39.8812 43.4175 40.1574 43.4175C40.4335 43.4175 42.9186 40.6563 42.9186 40.6563C43.178 40.4945 43.4018 40.2817 43.5764 40.0307C43.751 39.7798 43.8728 39.4959 43.9343 39.1964C43.9958 38.897 43.9957 38.5881 43.9341 38.2887C43.8726 37.9892 43.7507 37.7054 43.5761 37.4545C43.5761 37.4545 41.275 37.2967 40.4269 39.8838C39.5032 42.7469 36.617 43.4175 36.617 43.4175L38.2179 38.3388C41.3177 35.6005 39.9305 30.2785 39.9305 30.2785C39.9305 30.2785 35.3482 32.6519 35.4599 36.1955C35.477 37.7477 35.2552 39.2932 34.8025 40.7779C34.3939 42.1848 33.478 43.39 32.2319 44.1604L24.2243 49.8276C25.0296 44.5 26.4892 39.292 28.5699 34.3218C31.9623 26.3174 33.7933 26.37 33.7933 26.37C33.7933 26.37 40.588 22.0967 42.0771 13.8589C43.5662 5.62114 39.1515 0 39.1515 0C39.1515 0 36.2817 5.13463 33.3002 6.01889C30.3187 6.90315 26.4267 10.621 26.4267 10.621C26.4267 10.621 22.2552 14.7366 23.1954 20.6437C24.1355 26.5508 23.7213 30.0287 23.7213 30.0287L19.6353 42.1224C19.1652 42.2604 18.8595 40.4097 18.8595 40.4097C18.9168 38.3461 18.8433 36.2808 18.6393 34.2265C16.9957 29.2299 13.3403 29.506 13.3403 29.506C12.7059 31.245 12.7058 38.2829 15.5756 40.0251C18.4453 41.7674 18.0048 48.1413 18.0048 48.1413C18.0048 48.1413 17.2586 52.0333 16.7919 50.7908C16.3251 49.5482 15.9076 45.2419 15.4112 44.2755C12.4527 38.5525 7.21945 38.5327 7.21945 38.5327C7.21945 38.5327 6.59489 41.7082 7.63365 44.67C8.20563 46.3921 9.35685 47.8628 10.8913 48.8316C15.3356 50.3306 14.859 52.98 14.859 52.98L14.7472 53.2759C14.7472 53.2759 11.4896 67.6312 8.8302 70.5568C6.17084 73.4824 3.57065 73.2622 1.09866 74.3371C-1.37333 75.412 1.09866 77.0162 1.09866 77.0162H22.745C23.1855 77.0162 24.29 75.0866 22.0251 74.5343C19.7602 73.9821 19.9804 70.8263 19.9245 70.5502C18.8628 65.2381 22.9718 57.283 24.3327 56.1423C29.1682 52.0958 32.3207 50.3141 32.9288 49.8177C33.5369 49.3214 36.2423 48.0492 36.2423 48.0492C36.2423 48.0492 45.2164 45.6035 47.4188 45.5476C49.6213 45.4918 48.8718 43.72 48.8718 43.72ZM33.0932 13.8523C35.6375 10.5224 37.8662 1.877 35.6375 10.5224C33.4087 19.1678 30.2365 21.6167 30.2365 21.6167C30.2365 21.6167 30.539 17.1823 33.0833 13.8523H33.0932Z" fill="#1D4510"/>
</svg>
