<svg width="76" height="83" viewBox="0 0 76 83" fill="none" xmlns="http://www.w3.org/2000/svg">
<path d="M51.8931 74.9843C51.0675 78.7535 47.181 78.5963 47.181 78.5963C47.181 78.5963 45.4549 79.3796 45.9637 80.2826C46.2553 80.8079 46.6264 81.285 47.0638 81.697C73.9544 81.7369 74.2687 81.697 74.2687 81.697C74.2687 81.697 76.3491 80.1654 74.2687 78.6337C74.2687 78.6337 68.2245 78.6338 64.9642 71.0979C64.8694 70.8734 38.9567 6.72266 38.9567 6.72266C38.9567 6.72266 37.2779 12.1956 29.4951 17.8331L44.1976 52.6063C44.1976 52.6063 52.7163 71.2152 51.8931 74.9843Z" fill="#9CB217"/>
<path d="M52.1004 46.6444C50.9205 46.1455 49.5885 45.4995 48.451 46.5272C45.9565 48.7722 42.5141 46.3226 42.8085 46.3226C43.1028 46.3226 45.7594 43.3767 45.7594 43.3767C47.8199 41.9049 46.4654 39.9617 46.4654 39.9617C46.4654 39.9617 44.0008 39.7946 43.1103 42.5535C42.1125 45.6042 39.0468 46.3226 39.0468 46.3226L40.753 40.9046C44.0582 37.9861 42.579 32.3061 42.579 32.3061C42.579 32.3061 37.6923 34.838 37.8095 38.6072C37.8323 40.2626 37.6001 41.9116 37.121 43.4964C36.6838 44.996 35.7061 46.2802 34.3771 47.1009L25.836 53.1476C26.689 47.4647 28.2407 41.909 30.4558 36.6066C34.0728 28.068 36.0234 28.1254 36.0234 28.1254C36.0234 28.1254 43.2575 23.553 44.8614 14.7798C46.4654 6.00673 41.7408 0 41.7408 0C41.7408 0 38.6776 5.4754 35.5046 6.41831C32.3316 7.36123 28.1733 11.335 28.1733 11.335C28.1733 11.335 23.7157 15.7253 24.7159 22.0313C25.7162 28.3374 25.2747 32.0442 25.2747 32.0442L20.9193 44.9407C20.4204 45.0879 20.0937 43.1147 20.0937 43.1147C20.1535 38.8142 19.8592 36.5193 19.8592 36.5193C18.0906 31.1886 14.2042 31.4829 14.2042 31.4829C13.5282 33.3388 13.5282 40.8472 16.5889 42.7081C19.6496 44.569 19.1807 51.3665 19.1807 51.3665C19.1807 51.3665 18.3849 55.5173 17.886 54.1927C17.3871 52.8682 16.9431 48.2733 16.4143 47.2431C13.2737 41.1391 7.68357 41.1191 7.68357 41.1191C7.68357 41.1191 7.01505 44.5042 8.1251 47.6647C9.23515 50.8252 11.585 52.0874 11.585 52.0874C16.3245 53.6864 15.8256 56.5126 15.8256 56.5126L15.7059 56.8269C15.7059 56.8269 12.2335 72.1381 9.40477 75.2587C6.57602 78.3793 3.81213 78.1448 1.17296 79.2898C-1.4662 80.4348 1.17296 82.1485 1.17296 82.1485H24.257C24.7284 82.1485 25.9058 80.088 23.4911 79.4993C21.0765 78.9106 21.311 75.5456 21.2461 75.2587C20.1136 69.5937 24.4889 61.1075 25.9457 59.8927C31.1043 55.5772 34.4644 53.6764 35.113 53.1575C35.7615 52.6387 38.6477 51.2742 38.6477 51.2742C38.6477 51.2742 48.219 48.665 50.5738 48.6076C52.9286 48.5502 52.1004 46.6444 52.1004 46.6444ZM35.2626 14.7973C37.9766 11.2452 40.3514 2.02553 37.9766 11.2452C35.6019 20.4648 32.2144 23.0765 32.2144 23.0765C32.2144 23.0765 32.5387 18.342 35.2626 14.7973Z" fill="#1D4510"/>
</svg>
